<svg fill="#000000" xmlns="http://www.w3.org/2000/svg"  viewBox="0 0 32 32" width="32px" height="32px"><path d="M 2.7070312 2.2929688 L 1.2929688 3.7070312 L 27.292969 29.707031 L 28.707031 28.292969 L 26.414062 26 L 29 26 L 29 6 L 6.4140625 6 L 2.7070312 2.2929688 z M 8.4140625 8 L 27 8 L 27 20.585938 L 21 14.585938 L 18 17.585938 L 8.4140625 8 z M 3 8.234375 L 3 26 L 20.765625 26 L 18.765625 24 L 14.414062 24 L 16.589844 21.824219 L 15.175781 20.410156 L 14 21.585938 L 9 16.585938 L 5 20.585938 L 5 10.234375 L 3 8.234375 z M 23.5 10 A 1.5 1.5 0 0 0 23.5 13 A 1.5 1.5 0 0 0 23.5 10 z M 21 17.414062 L 27 23.414062 L 27 24 L 24.414062 24 L 19.414062 19 L 21 17.414062 z M 9 19.414062 L 12.585938 23 L 11.585938 24 L 5 24 L 5 23.414062 L 9 19.414062 z"/></svg>
