<svg fill="#000000" xmlns="http://www.w3.org/2000/svg"  viewBox="0 0 32 32" width="32px" height="32px"><path d="M 6 3 L 6 29 L 16.375 29 L 16.03125 30.8125 L 15.71875 32.28125 L 17.1875 31.96875 L 20.6875 31.28125 L 21 31.21875 L 21.21875 31 L 31.09375 21.09375 C 32.246094 19.941406 32.246094 18.058594 31.09375 16.90625 C 30.515625 16.328125 29.765625 16.03125 29 16.03125 C 28.234375 16.03125 27.484375 16.328125 26.90625 16.90625 L 26 17.8125 L 26 9.59375 L 25.71875 9.28125 L 19.71875 3.28125 L 19.40625 3 Z M 8 5 L 18 5 L 18 11 L 24 11 L 24 19.8125 L 17 26.78125 L 16.78125 27 L 8 27 Z M 20 6.4375 L 22.5625 9 L 20 9 Z M 29 17.96875 C 29.234375 17.96875 29.464844 18.089844 29.6875 18.3125 C 30.132813 18.757813 30.132813 19.242188 29.6875 19.6875 L 20 29.375 L 18.28125 29.71875 L 18.625 28 L 28.25 18.34375 L 28.3125 18.3125 C 28.535156 18.089844 28.765625 17.96875 29 17.96875 Z"/></svg>