<svg xmlns="http://www.w3.org/2000/svg" width="32" height="32" fill="currentColor" viewBox="0 0 32 32">
  <path fill="#fff" d="M0 7.381c0-1.796 1.983-2.884 3.498-1.92l13.728 8.736c1.406.895 1.406 2.946 0 3.84L3.498 26.775C1.983 27.738 0 26.649 0 24.854V7.38Z"/>
  <path fill="#fff" fill-rule="evenodd" d="M20.586 10.586a2 2 0 0 1 2.828 0l8 8a2 2 0 1 1-2.828 2.828l-8-8a2 2 0 0 1 0-2.828Z" clip-rule="evenodd"/>
  <path fill="#fff" fill-rule="evenodd" d="M31.414 10.586a2 2 0 0 0-2.828 0l-8 8a2 2 0 1 0 2.828 2.828l8-8a2 2 0 0 0 0-2.828Z" clip-rule="evenodd"/>
</svg>
