<?xml version="1.0" encoding="UTF-8"?>
<!-- Generated by Pixelmator Pro 2.4.3 -->
<svg width="24" height="24" viewBox="0 0 24 24" xmlns="http://www.w3.org/2000/svg" xmlns:xlink="http://www.w3.org/1999/xlink">
    <g id="Group">
        <path id="Path" fill="#000000" stroke="none" d="M 12 2 C 6.477152 2 2 6.477154 2 12 C 2 17.522846 6.477152 22 12 22 C 17.522846 22 22 17.522846 22 12 C 21.983526 6.48399 17.51601 2.016474 12 2 Z M 12 19.5 C 7.857864 19.5 4.5 16.142136 4.5 12 C 4.5 7.857864 7.857864 4.5 12 4.5 C 16.142136 4.5 19.5 7.857864 19.5 12 C 19.487644 16.137007 16.137007 19.487644 12 19.5 Z"/>
        <path id="path1" fill="#000000" stroke="none" d="M 16.375 10.75 L 13.25 10.75 L 13.25 7.625 C 13.25 6.934645 12.690356 6.375 12 6.375 C 11.309644 6.375 10.75 6.934645 10.75 7.625 L 10.75 12 C 10.75 12.690356 11.309644 13.25 12 13.25 L 16.375 13.25 C 17.065357 13.25 17.625 12.690356 17.625 12 C 17.625 11.309645 17.065357 10.75 16.375 10.75 Z"/>
    </g>
</svg>
