<svg xmlns="http://www.w3.org/2000/svg" height="12" width="12" viewBox="0 0 12 12"><title>cogwheel</title><g stroke-width="1" stroke-linejoin="round" fill="none" stroke="#FFFFFF" stroke-linecap="round" class="nc-icon-wrapper"><path d="M11.5,6.9V5.1L9.832,4.915a3.989,3.989,0,0,0-.355-.857l1.049-1.311L9.253,1.474,7.942,2.523a3.989,3.989,0,0,0-.857-.355L6.9.5H5.1L4.915,2.168a3.989,3.989,0,0,0-.857.355L2.747,1.474,1.474,2.747,2.523,4.058a3.989,3.989,0,0,0-.355.857L.5,5.1V6.9l1.668.185a3.989,3.989,0,0,0,.355.857L1.474,9.253l1.273,1.272L4.058,9.477a3.989,3.989,0,0,0,.857.355L5.1,11.5H6.9l.185-1.668a3.989,3.989,0,0,0,.857-.355l1.311,1.048,1.273-1.272L9.477,7.942a3.989,3.989,0,0,0,.355-.857Z"></path><circle cx="6" cy="6" r="1.5" stroke="#FFFFFF"></circle></g></svg>