<svg xmlns="http://www.w3.org/2000/svg" width="32" height="32" fill="currentColor" viewBox="0 0 32 32">
  <path fill="#fff" d="M0 8.47C0 6.9 1.735 5.947 3.062 6.791l12.015 7.647a1.992 1.992 0 0 1 0 3.361L3.062 25.444C1.735 26.288 0 25.336 0 23.764V8.47Z"/>
  <path fill="#fff" fill-rule="evenodd" d="M16.781 8.781a2.667 2.667 0 0 1 3.771 0L31.22 19.448a2.667 2.667 0 0 1-3.771 3.771L16.78 12.552a2.667 2.667 0 0 1 0-3.77Z" clip-rule="evenodd"/>
  <path fill="#fff" fill-rule="evenodd" d="M31.219 8.781a2.667 2.667 0 0 0-3.771 0L16.78 19.448a2.667 2.667 0 0 0 3.771 3.771L31.22 12.552a2.667 2.667 0 0 0 0-3.77Z" clip-rule="evenodd"/>
</svg>
