<svg xmlns="http://www.w3.org/2000/svg" width="32" height="32" fill="currentColor" viewBox="0 0 32 32">
  <g clip-path="url(#a)">
    <path fill="#fff" d="M0 7.381c0-1.796 1.983-2.884 3.498-1.92l13.728 8.736c1.406.895 1.406 2.946 0 3.84L3.498 26.775C1.983 27.738 0 26.649 0 24.854V7.38Z"/>
    <path fill="#fff" fill-rule="evenodd" d="M31.28 15.464a2 2 0 0 1 .256 2.817l-9.172 11a2 2 0 0 1-2.812.26l-4.828-4a2 2 0 0 1 2.552-3.081l3.292 2.728 7.896-9.469a2 2 0 0 1 2.817-.255Z" clip-rule="evenodd"/>
  </g>
  <defs>
    <clipPath id="a">
      <path fill="#fff" d="M0 0h32v32H0z"/>
    </clipPath>
  </defs>
</svg>
