<svg xmlns="http://www.w3.org/2000/svg" width="32" height="32" fill="none" viewBox="0 0 32 32">
  <path fill="#fff" d="M0 7.382c0-1.796 1.983-2.885 3.498-1.92l13.728 8.735c1.406.895 1.406 2.947 0 3.84L3.498 26.775C1.983 27.738 0 26.65 0 24.854V7.382Z"/>
  <path fill="#fff" fill-rule="evenodd" d="M30.683 22.242a2 2 0 0 0-2.828-2.828l-2.806 2.806-2.806-2.806a2 2 0 0 0-2.829 2.828l3.982 3.982a2.01 2.01 0 0 0 1.653.844 1.994 1.994 0 0 0 1.652-.844l3.982-3.982Z" clip-rule="evenodd"/>
  <rect width="4" height="18" x="23" y="6" fill="#fff" rx="2"/>
</svg>
