<svg width="16" height="16" viewBox="0 0 16 16" fill="none" xmlns="http://www.w3.org/2000/svg">
<path d="M0.5 9.5H3.5" stroke="white"/>
<path d="M5.70801 1.99968C5.90239 1.55343 6.22281 1.17363 6.62996 0.906885C7.0371 0.640138 7.51326 0.498047 8.00001 0.498047C8.48675 0.498047 8.96291 0.640138 9.37006 0.906885C9.7772 1.17363 10.0976 1.55343 10.292 1.99968" stroke="white"/>
<path d="M3.756 6.5H3.5C2.70435 6.5 1.94129 6.18393 1.37868 5.62132C0.81607 5.05871 0.5 4.29565 0.5 3.5V3.5" stroke="white"/>
<path d="M3.756 12.5H3.5C2.70435 12.5 1.94129 12.8161 1.37868 13.3787C0.81607 13.9413 0.5 14.7044 0.5 15.5V15.5" stroke="white"/>
<path d="M15.5 9.5H12.5" stroke="white"/>
<path d="M12.2439 6.5H12.4999C13.2955 6.5 14.0586 6.18393 14.6212 5.62132C15.1838 5.05871 15.4999 4.29565 15.4999 3.5V3.5" stroke="white"/>
<path d="M12.2439 12.5H12.4999C13.2955 12.5 14.0586 12.8161 14.6212 13.3787C15.1838 13.9413 15.4999 14.7044 15.4999 15.5V15.5" stroke="white"/>
<path d="M12.5 8C12.5 5.51472 10.4853 3.5 8 3.5C5.51472 3.5 3.5 5.51472 3.5 8V11C3.5 13.4853 5.51472 15.5 8 15.5C10.4853 15.5 12.5 13.4853 12.5 11V8Z" stroke="white"/>
</svg>
