<svg width="16" height="16" viewBox="0 0 16 16" fill="none" xmlns="http://www.w3.org/2000/svg">
<path fill-rule="evenodd" clip-rule="evenodd" d="M2.64 0H13.36C13.5759 0.000524649 13.7896 0.0435677 13.9888 0.126671C14.1881 0.209775 14.369 0.331312 14.5213 0.484343C14.6736 0.637375 14.7943 0.818903 14.8764 1.01856C14.9585 1.21822 15.0005 1.43211 15 1.648V16L13.28 14.484L12.312 13.584L11.288 12.632L11.712 14.112H2.64C2.42411 14.1115 2.21044 14.0684 2.01118 13.9853C1.81192 13.9022 1.63098 13.7807 1.47869 13.6277C1.3264 13.4746 1.20575 13.2931 1.12361 13.0934C1.04148 12.8938 0.999479 12.6799 1 12.464V1.648C0.999479 1.43211 1.04148 1.21822 1.12361 1.01856C1.20575 0.818903 1.3264 0.637375 1.47869 0.484343C1.63098 0.331312 1.81192 0.209775 2.01118 0.126671C2.21044 0.0435677 2.42411 0.000524649 2.64 0ZM9.74401 9.8C9.984 10.1 10.272 10.448 10.272 10.448C10.7482 10.4601 11.2202 10.3556 11.6468 10.1437C12.0735 9.93173 12.4419 9.61877 12.72 9.232C12.694 7.61017 12.3001 6.01541 11.568 4.568C10.9237 4.06199 10.1382 3.76848 9.32 3.728L9.208 3.856C9.93611 4.04864 10.6151 4.39357 11.2 4.868C10.4551 4.45741 9.63708 4.19651 8.792 4.1C8.25547 4.04508 7.7143 4.05448 7.18 4.128C7.13429 4.12938 7.08879 4.13473 7.044 4.144C6.41615 4.21415 5.80328 4.38289 5.228 4.644C4.932 4.776 4.756 4.876 4.756 4.876C5.37071 4.37693 6.08764 4.01915 6.856 3.828L6.776 3.728C5.95777 3.76848 5.17229 4.06199 4.528 4.568C3.79587 6.01541 3.40197 7.61017 3.376 9.232C3.65189 9.61916 4.01872 9.93255 4.44421 10.1446C4.86969 10.3566 5.34078 10.4608 5.816 10.448C5.816 10.448 6.11201 10.084 6.35201 9.784C5.78956 9.64215 5.29436 9.30824 4.952 8.84C5.23778 9.03029 5.54362 9.18857 5.864 9.312C6.2447 9.46226 6.63834 9.57741 7.04 9.656C7.72416 9.78753 8.42685 9.79024 9.11201 9.664C9.51061 9.59429 9.89984 9.47886 10.272 9.32C10.5955 9.19792 10.9041 9.03957 11.192 8.848C10.8368 9.32627 10.3239 9.6635 9.74401 9.8ZM5.96953 6.9965C6.12107 6.83199 6.32892 6.73049 6.55183 6.71215C6.66396 6.71612 6.77419 6.74233 6.87611 6.78926C6.97802 6.83619 7.0696 6.9029 7.14552 6.98552C7.22144 7.06813 7.28019 7.16501 7.31835 7.27052C7.35651 7.37604 7.37333 7.48808 7.36783 7.60015C7.37266 7.71206 7.35537 7.82382 7.31696 7.92904C7.27855 8.03427 7.21977 8.13088 7.14398 8.21336C7.06818 8.29584 6.97687 8.36256 6.87526 8.40971C6.77366 8.45687 6.66375 8.48352 6.55183 8.48815C6.32892 8.46981 6.12107 8.36831 5.96953 8.2038C5.818 8.03929 5.73389 7.82381 5.73389 7.60015C5.73389 7.37649 5.818 7.161 5.96953 6.9965ZM8.95776 6.82468C9.11388 6.73627 9.29305 6.69704 9.47183 6.71215C9.58375 6.71678 9.69366 6.74343 9.79527 6.79058C9.89687 6.83773 9.98818 6.90446 10.064 6.98693C10.1398 7.06941 10.1986 7.16603 10.237 7.27125C10.2754 7.37647 10.2927 7.48824 10.2878 7.60015C10.2878 7.77956 10.2336 7.95479 10.1323 8.10289C10.0311 8.251 9.88745 8.36508 9.72027 8.43021C9.5531 8.49534 9.37015 8.50848 9.19538 8.46791C9.02061 8.42735 8.86216 8.33497 8.74076 8.20286C8.61937 8.07075 8.54068 7.90507 8.515 7.7275C8.48933 7.54993 8.51785 7.36875 8.59685 7.20766C8.67585 7.04658 8.80164 6.91309 8.95776 6.82468Z" fill="currentColor"/>
</svg>
